<svg xmlns="http://www.w3.org/2000/svg" width="105" height="99" viewBox="0 0 105 99">
    <g fill="#FFF" fill-rule="evenodd">
        <path d="M29 63.732a2 2 0 1 0-2.002-3.465A2 2 0 0 0 29 63.732z"/>
        <path fill-rule="nonzero" d="M19.78 76.956l10.378 17.932c2.239 3.873 7.276 5.307 11.26 3.01 3.942-2.272 5.297-7.297 3.017-11.232l-6.183-10.683 5.354-3.084a2.053 2.053 0 0 0 .754-2.808l-2.68-4.63 39.472-7.723c4.58-.249 7.324-5.246 5.01-9.24l-6.848-11.834 4.377-6.612c.43-.65.455-1.487.065-2.161l-4.122-7.121a2.066 2.066 0 0 0-1.908-1.024l-7.928.475-7.603-13.137A6.13 6.13 0 0 0 56.918 4L56.84 4a6.131 6.131 0 0 0-5.205 2.843l-26.92 34.21-17.5 10.08c-6.884 3.962-9.268 12.77-5.28 19.656 3.643 6.295 11.324 8.772 17.846 6.167zm21.086 11.766a4.104 4.104 0 0 1-1.51 5.616 4.132 4.132 0 0 1-5.63-1.505L23.424 75.028l7.139-4.112 10.304 17.806zm-4.674-16.3L34.13 68.86l3.57-2.056 2.06 3.56-3.57 2.056zm40.51-48.496l2.848 4.92-2.54 3.837-4.908-8.482 4.6-.275zM55.082 9.097a2.018 2.018 0 0 1 1.785-.986 2.026 2.026 0 0 1 1.758 1.027l23.969 41.415c.78 1.348-.169 3.044-1.734 3.082-.281.007-.41.057-1.13.191L54.374 10.018c.532-.682.6-.748.706-.92zm-3.45 4.407l23.822 41.159-35.952 7.034L28.571 42.81l23.062-29.306zm-46.13 55.23a10.245 10.245 0 0 1-1.382-5.13c0-3.666 1.975-7.08 5.154-8.911l16.062-9.25 10.303 17.802-16.061 9.251c-4.921 2.833-11.234 1.145-14.075-3.763z"/>
        <path d="M21.73 64.918c-.555-.878-1.785-1.179-2.747-.672L15.5 66.083c-.96.506-2.192.204-2.747-.673-.555-.878-1.786-1.179-2.747-.672-.962.507-1.292 1.63-.736 2.509 1.655 2.618 5.347 3.541 8.241 2.016l3.483-1.836c.962-.507 1.292-1.63.736-2.509zM101.86 8.273l-11.774 6.686c-1.02.58-1.387 1.892-.819 2.933a2.09 2.09 0 0 0 2.874.835l11.773-6.686c1.02-.58 1.387-1.892.819-2.933a2.09 2.09 0 0 0-2.873-.835zM100.482 30.114l-7.905-2.046c-1.092-.283-2.214.343-2.507 1.397-.292 1.055.356 2.138 1.448 2.42l7.906 2.047c1.098.285 2.215-.35 2.506-1.398.292-1.054-.356-2.138-1.448-2.42zM81.115 1.517l-2.047 7.906c-.283 1.092.343 2.214 1.397 2.507 1.053.292 2.137-.354 2.42-1.447l2.047-7.906C85.215 1.485 84.59.363 83.535.07c-1.053-.292-2.137.355-2.42 1.447z"/>
    </g>
</svg>
